<?xml version="1.0" encoding="UTF-8" standalone="no"?>
<!DOCTYPE svg PUBLIC "-//W3C//DTD SVG 1.1//EN"
 "http://www.w3.org/Graphics/SVG/1.1/DTD/svg11.dtd">
<!-- Generated by graphviz version 2.42.3 (20191010.1750)
 -->
<!-- Title: finite_state_machine Pages: 1 -->
<svg width="420pt" height="230pt"
 viewBox="0.00 0.00 420.00 230.00" xmlns="http://www.w3.org/2000/svg" xmlns:xlink="http://www.w3.org/1999/xlink">
<g id="graph0" class="graph" transform="scale(1 1) rotate(0) translate(4 226)">
<title>finite_state_machine</title>
<polygon fill="white" stroke="transparent" points="-4,4 -4,-226 416,-226 416,4 -4,4"/>
<!-- 0 -->
<g id="node1" class="node">
<title>0</title>
<ellipse fill="none" stroke="black" cx="22" cy="-138" rx="18" ry="18"/>
<ellipse fill="none" stroke="black" cx="22" cy="-138" rx="22" ry="22"/>
<text text-anchor="middle" x="22" y="-134.3" font-family="Helvetica,Arial,sans-serif" font-size="14.00">0</text>
</g>
<!-- 3 -->
<g id="node2" class="node">
<title>3</title>
<ellipse fill="none" stroke="black" cx="118" cy="-85" rx="18" ry="18"/>
<ellipse fill="none" stroke="black" cx="118" cy="-85" rx="22" ry="22"/>
<text text-anchor="middle" x="118" y="-81.3" font-family="Helvetica,Arial,sans-serif" font-size="14.00">3</text>
</g>
<!-- 0&#45;&gt;3 -->
<g id="edge2" class="edge">
<title>0&#45;&gt;3</title>
<path fill="none" stroke="black" d="M41.57,-127.53C55.22,-119.83 73.99,-109.25 89.39,-100.57"/>
<polygon fill="black" stroke="black" points="91.48,-103.41 98.47,-95.45 88.04,-97.31 91.48,-103.41"/>
<text text-anchor="middle" x="70" y="-117.8" font-family="Helvetica,Arial,sans-serif" font-size="14.00">10</text>
</g>
<!-- 2 -->
<g id="node5" class="node">
<title>2</title>
<ellipse fill="none" stroke="black" cx="210" cy="-193" rx="18" ry="18"/>
<text text-anchor="middle" x="210" y="-189.3" font-family="Helvetica,Arial,sans-serif" font-size="14.00">2</text>
</g>
<!-- 0&#45;&gt;2 -->
<g id="edge1" class="edge">
<title>0&#45;&gt;2</title>
<path fill="none" stroke="black" d="M40.64,-150.02C47.13,-153.99 54.68,-158.13 62,-161 102.07,-176.71 151.45,-185.45 181.56,-189.69"/>
<polygon fill="black" stroke="black" points="181.36,-193.19 191.73,-191.05 182.28,-186.25 181.36,-193.19"/>
<text text-anchor="middle" x="118" y="-185.8" font-family="Helvetica,Arial,sans-serif" font-size="14.00">8</text>
</g>
<!-- 1 -->
<g id="node6" class="node">
<title>1</title>
<ellipse fill="none" stroke="black" cx="210" cy="-18" rx="18" ry="18"/>
<text text-anchor="middle" x="210" y="-14.3" font-family="Helvetica,Arial,sans-serif" font-size="14.00">1</text>
</g>
<!-- 0&#45;&gt;1 -->
<g id="edge3" class="edge">
<title>0&#45;&gt;1</title>
<path fill="none" stroke="black" d="M31.97,-118.11C43.4,-95.17 65.41,-58.16 96,-39 121.96,-22.74 157.41,-18.43 181.64,-17.58"/>
<polygon fill="black" stroke="black" points="181.97,-21.08 191.91,-17.41 181.85,-14.08 181.97,-21.08"/>
<text text-anchor="middle" x="118" y="-42.8" font-family="Helvetica,Arial,sans-serif" font-size="14.00">7</text>
</g>
<!-- 4 -->
<g id="node3" class="node">
<title>4</title>
<ellipse fill="none" stroke="black" cx="302" cy="-76" rx="18" ry="18"/>
<ellipse fill="none" stroke="black" cx="302" cy="-76" rx="22" ry="22"/>
<text text-anchor="middle" x="302" y="-72.3" font-family="Helvetica,Arial,sans-serif" font-size="14.00">4</text>
</g>
<!-- 3&#45;&gt;4 -->
<g id="edge5" class="edge">
<title>3&#45;&gt;4</title>
<path fill="none" stroke="black" d="M140.23,-83.95C172.15,-82.37 232.69,-79.38 269.68,-77.55"/>
<polygon fill="black" stroke="black" points="270.09,-81.03 279.9,-77.04 269.74,-74.04 270.09,-81.03"/>
<text text-anchor="middle" x="210" y="-84.8" font-family="Helvetica,Arial,sans-serif" font-size="14.00">5</text>
</g>
<!-- 3&#45;&gt;2 -->
<g id="edge6" class="edge">
<title>3&#45;&gt;2</title>
<path fill="none" stroke="black" d="M139.48,-90.28C150.89,-94.13 164.64,-100.38 174,-110 188.86,-125.27 197.82,-147.8 202.94,-165.54"/>
<polygon fill="black" stroke="black" points="199.59,-166.56 205.54,-175.33 206.36,-164.77 199.59,-166.56"/>
<text text-anchor="middle" x="166" y="-113.8" font-family="Helvetica,Arial,sans-serif" font-size="14.00">2</text>
</g>
<!-- 3&#45;&gt;1 -->
<g id="edge7" class="edge">
<title>3&#45;&gt;1</title>
<path fill="none" stroke="black" d="M133.37,-69.25C140.41,-62.01 149.24,-53.59 158,-47 166.13,-40.89 175.68,-35.13 184.3,-30.38"/>
<polygon fill="black" stroke="black" points="186,-33.44 193.19,-25.65 182.71,-27.26 186,-33.44"/>
<text text-anchor="middle" x="166" y="-50.8" font-family="Helvetica,Arial,sans-serif" font-size="14.00">11</text>
</g>
<!-- 4&#45;&gt;0 -->
<g id="edge11" class="edge">
<title>4&#45;&gt;0</title>
<path fill="none" stroke="black" d="M281.21,-84.26C275.07,-86.78 268.27,-89.54 262,-92 223.12,-107.26 214.74,-115.79 174,-125 133.36,-134.19 85.23,-136.98 54.42,-137.78"/>
<polygon fill="black" stroke="black" points="54.21,-134.28 44.29,-137.98 54.36,-141.28 54.21,-134.28"/>
<text text-anchor="middle" x="166" y="-131.8" font-family="Helvetica,Arial,sans-serif" font-size="14.00">5</text>
</g>
<!-- 5 -->
<g id="node7" class="node">
<title>5</title>
<ellipse fill="none" stroke="black" cx="394" cy="-29" rx="18" ry="18"/>
<text text-anchor="middle" x="394" y="-25.3" font-family="Helvetica,Arial,sans-serif" font-size="14.00">5</text>
</g>
<!-- 4&#45;&gt;5 -->
<g id="edge10" class="edge">
<title>4&#45;&gt;5</title>
<path fill="none" stroke="black" d="M322.09,-66.03C335.72,-58.91 354.16,-49.28 368.82,-41.63"/>
<polygon fill="black" stroke="black" points="370.57,-44.66 377.82,-36.93 367.33,-38.46 370.57,-44.66"/>
<text text-anchor="middle" x="350" y="-58.8" font-family="Helvetica,Arial,sans-serif" font-size="14.00">14</text>
</g>
<!-- 8 -->
<g id="node4" class="node">
<title>8</title>
<ellipse fill="none" stroke="black" cx="22" cy="-200" rx="18" ry="18"/>
<ellipse fill="none" stroke="black" cx="22" cy="-200" rx="22" ry="22"/>
<text text-anchor="middle" x="22" y="-196.3" font-family="Helvetica,Arial,sans-serif" font-size="14.00">8</text>
</g>
<!-- 2&#45;&gt;4 -->
<g id="edge4" class="edge">
<title>2&#45;&gt;4</title>
<path fill="none" stroke="black" d="M226.98,-186.02C238,-180.54 252.35,-172 262,-161 275.7,-145.39 285.44,-124.16 291.77,-106.83"/>
<polygon fill="black" stroke="black" points="295.15,-107.73 295.1,-97.14 288.54,-105.46 295.15,-107.73"/>
<text text-anchor="middle" x="254" y="-177.8" font-family="Helvetica,Arial,sans-serif" font-size="14.00">12</text>
</g>
<!-- 1&#45;&gt;4 -->
<g id="edge8" class="edge">
<title>1&#45;&gt;4</title>
<path fill="none" stroke="black" d="M226.47,-26.15C236.73,-31.72 250.4,-39.43 262,-47 266.68,-50.06 271.55,-53.47 276.2,-56.86"/>
<polygon fill="black" stroke="black" points="274.12,-59.67 284.24,-62.83 278.3,-54.06 274.12,-59.67"/>
<text text-anchor="middle" x="254" y="-50.8" font-family="Helvetica,Arial,sans-serif" font-size="14.00">1</text>
</g>
<!-- 1&#45;&gt;5 -->
<g id="edge9" class="edge">
<title>1&#45;&gt;5</title>
<path fill="none" stroke="black" d="M228.12,-19.03C259.69,-20.94 327.33,-25.03 365.43,-27.33"/>
<polygon fill="black" stroke="black" points="365.6,-30.85 375.79,-27.96 366.02,-23.86 365.6,-30.85"/>
<text text-anchor="middle" x="302" y="-27.8" font-family="Helvetica,Arial,sans-serif" font-size="14.00">21</text>
</g>
</g>
</svg>
