<?xml version="1.0" encoding="UTF-8" standalone="no"?>
<!DOCTYPE svg PUBLIC "-//W3C//DTD SVG 1.1//EN"
 "http://www.w3.org/Graphics/SVG/1.1/DTD/svg11.dtd">
<!-- Generated by graphviz version 7.0.6 (20230106.0513)
 -->
<!-- Title: finite_state_machine Pages: 1 -->
<svg width="626pt" height="385pt"
 viewBox="0.00 0.00 625.60 385.00" xmlns="http://www.w3.org/2000/svg" xmlns:xlink="http://www.w3.org/1999/xlink">
<g id="graph0" class="graph" transform="scale(1 1) rotate(0) translate(4 381)">
<title>finite_state_machine</title>
<polygon fill="white" stroke="none" points="-4,4 -4,-381 621.6,-381 621.6,4 -4,4"/>
<!-- 0 -->
<g id="node1" class="node">
<title>0</title>
<ellipse fill="none" stroke="black" cx="22" cy="-114" rx="18" ry="18"/>
<ellipse fill="none" stroke="black" cx="22" cy="-114" rx="22" ry="22"/>
<text text-anchor="middle" x="22" y="-110.3" font-family="Helvetica,Arial,sans-serif" font-size="14.00">0</text>
</g>
<!-- 7 -->
<g id="node4" class="node">
<title>7</title>
<ellipse fill="none" stroke="black" cx="106" cy="-201" rx="18" ry="18"/>
<text text-anchor="middle" x="106" y="-197.3" font-family="Helvetica,Arial,sans-serif" font-size="14.00">7</text>
</g>
<!-- 0&#45;&gt;7 -->
<g id="edge14" class="edge">
<title>0&#45;&gt;7</title>
<path fill="none" stroke="black" d="M34.99,-132.19C42.24,-142.59 51.99,-155.59 62,-166 68.05,-172.3 75.22,-178.53 81.95,-183.95"/>
<polygon fill="black" stroke="black" points="79.47,-186.46 89.51,-189.84 83.77,-180.93 79.47,-186.46"/>
<text text-anchor="middle" x="66" y="-177.8" font-family="Helvetica,Arial,sans-serif" font-size="14.00">1</text>
</g>
<!-- 10 -->
<g id="node6" class="node">
<title>10</title>
<ellipse fill="none" stroke="black" cx="272.8" cy="-155" rx="20.6" ry="20.6"/>
<text text-anchor="middle" x="272.8" y="-151.3" font-family="Helvetica,Arial,sans-serif" font-size="14.00">10</text>
</g>
<!-- 0&#45;&gt;10 -->
<g id="edge15" class="edge">
<title>0&#45;&gt;10</title>
<path fill="none" stroke="black" d="M44.26,-114.57C69.59,-115.5 113.12,-117.9 150,-124 181.78,-129.26 217.41,-138.76 241.88,-145.86"/>
<polygon fill="black" stroke="black" points="240.57,-149.13 251.16,-148.6 242.56,-142.41 240.57,-149.13"/>
<text text-anchor="middle" x="146" y="-127.8" font-family="Helvetica,Arial,sans-serif" font-size="14.00">0</text>
</g>
<!-- 9 -->
<g id="node9" class="node">
<title>9</title>
<ellipse fill="none" stroke="black" cx="439.6" cy="-109" rx="18" ry="18"/>
<text text-anchor="middle" x="439.6" y="-105.3" font-family="Helvetica,Arial,sans-serif" font-size="14.00">9</text>
</g>
<!-- 0&#45;&gt;9 -->
<g id="edge16" class="edge">
<title>0&#45;&gt;9</title>
<path fill="none" stroke="black" d="M32.91,-94.82C46.07,-72.31 71.61,-38 105,-38 105,-38 105,-38 360.6,-38 388.48,-38 410.79,-63.12 424.29,-83.48"/>
<polygon fill="black" stroke="black" points="421.31,-85.31 429.56,-91.96 427.26,-81.62 421.31,-85.31"/>
<text text-anchor="middle" x="226" y="-41.8" font-family="Helvetica,Arial,sans-serif" font-size="14.00">0</text>
</g>
<!-- 8 -->
<g id="node10" class="node">
<title>8</title>
<ellipse fill="none" stroke="black" cx="599.6" cy="-216" rx="18" ry="18"/>
<text text-anchor="middle" x="599.6" y="-212.3" font-family="Helvetica,Arial,sans-serif" font-size="14.00">8</text>
</g>
<!-- 0&#45;&gt;8 -->
<g id="edge17" class="edge">
<title>0&#45;&gt;8</title>
<path fill="none" stroke="black" d="M25.49,-136.01C32.94,-196.7 57.61,-362 105,-362 105,-362 105,-362 520.6,-362 572.89,-362 590.25,-288.23 595.92,-245.57"/>
<polygon fill="black" stroke="black" points="599.39,-246.04 597.08,-235.7 592.44,-245.22 599.39,-246.04"/>
<text text-anchor="middle" x="319.6" y="-365.8" font-family="Helvetica,Arial,sans-serif" font-size="14.00">0</text>
</g>
<!-- 12 -->
<g id="node2" class="node">
<title>12</title>
<ellipse fill="none" stroke="black" cx="272.8" cy="-248" rx="20.63" ry="20.63"/>
<ellipse fill="none" stroke="black" cx="272.8" cy="-248" rx="24.6" ry="24.6"/>
<text text-anchor="middle" x="272.8" y="-244.3" font-family="Helvetica,Arial,sans-serif" font-size="14.00">12</text>
</g>
<!-- 4 -->
<g id="node5" class="node">
<title>4</title>
<ellipse fill="none" stroke="black" cx="186" cy="-210" rx="18" ry="18"/>
<text text-anchor="middle" x="186" y="-206.3" font-family="Helvetica,Arial,sans-serif" font-size="14.00">4</text>
</g>
<!-- 12&#45;&gt;4 -->
<g id="edge22" class="edge">
<title>12&#45;&gt;4</title>
<path fill="none" stroke="black" d="M248.16,-252.55C239.6,-253.17 230.05,-252.59 222,-249 214.63,-245.71 208.17,-240.02 202.87,-233.99"/>
<polygon fill="black" stroke="black" points="205.8,-232.06 196.89,-226.33 200.29,-236.37 205.8,-232.06"/>
<text text-anchor="middle" x="226" y="-255.8" font-family="Helvetica,Arial,sans-serif" font-size="14.00">1</text>
</g>
<!-- 1 -->
<g id="node7" class="node">
<title>1</title>
<ellipse fill="none" stroke="black" cx="519.6" cy="-216" rx="18" ry="18"/>
<text text-anchor="middle" x="519.6" y="-212.3" font-family="Helvetica,Arial,sans-serif" font-size="14.00">1</text>
</g>
<!-- 12&#45;&gt;1 -->
<g id="edge24" class="edge">
<title>12&#45;&gt;1</title>
<path fill="none" stroke="black" d="M297.12,-253.27C303.11,-254.4 309.56,-255.43 315.6,-256 378.78,-261.99 395.24,-252.77 457.6,-241 469.16,-238.82 472.56,-240.09 483.6,-236 487.14,-234.69 490.75,-233.04 494.23,-231.25"/>
<polygon fill="black" stroke="black" points="495.81,-234.38 502.82,-226.43 492.38,-228.28 495.81,-234.38"/>
<text text-anchor="middle" x="399.6" y="-256.8" font-family="Helvetica,Arial,sans-serif" font-size="14.00">1</text>
</g>
<!-- 3 -->
<g id="node8" class="node">
<title>3</title>
<ellipse fill="none" stroke="black" cx="359.6" cy="-139" rx="18" ry="18"/>
<text text-anchor="middle" x="359.6" y="-135.3" font-family="Helvetica,Arial,sans-serif" font-size="14.00">3</text>
</g>
<!-- 12&#45;&gt;3 -->
<g id="edge23" class="edge">
<title>12&#45;&gt;3</title>
<path fill="none" stroke="black" d="M291.37,-231.5C301.37,-221.67 313.82,-208.67 323.6,-196 331.18,-186.17 338.53,-174.62 344.52,-164.49"/>
<polygon fill="black" stroke="black" points="347.51,-166.31 349.47,-155.89 341.45,-162.81 347.51,-166.31"/>
<text text-anchor="middle" x="319.6" y="-209.8" font-family="Helvetica,Arial,sans-serif" font-size="14.00">1</text>
</g>
<!-- 2 -->
<g id="node3" class="node">
<title>2</title>
<ellipse fill="none" stroke="black" cx="186" cy="-316" rx="18" ry="18"/>
<text text-anchor="middle" x="186" y="-312.3" font-family="Helvetica,Arial,sans-serif" font-size="14.00">2</text>
</g>
<!-- 2&#45;&gt;12 -->
<g id="edge1" class="edge">
<title>2&#45;&gt;12</title>
<path fill="none" stroke="black" d="M200.62,-305.07C212.41,-295.62 229.81,-281.67 244.46,-269.92"/>
<polygon fill="black" stroke="black" points="246.36,-272.89 251.97,-263.9 241.98,-267.43 246.36,-272.89"/>
<text text-anchor="middle" x="226" y="-289.8" font-family="Helvetica,Arial,sans-serif" font-size="14.00">1</text>
</g>
<!-- 7&#45;&gt;4 -->
<g id="edge2" class="edge">
<title>7&#45;&gt;4</title>
<path fill="none" stroke="black" d="M124.31,-203C133.8,-204.09 145.81,-205.48 156.63,-206.73"/>
<polygon fill="black" stroke="black" points="155.9,-210.17 166.23,-207.83 156.7,-203.21 155.9,-210.17"/>
<text text-anchor="middle" x="146" y="-209.8" font-family="Helvetica,Arial,sans-serif" font-size="14.00">1</text>
</g>
<!-- 4&#45;&gt;12 -->
<g id="edge8" class="edge">
<title>4&#45;&gt;12</title>
<path fill="none" stroke="black" d="M202.66,-217.21C208.7,-219.98 215.66,-223.15 222,-226 227.71,-228.57 233.8,-231.28 239.69,-233.89"/>
<polygon fill="black" stroke="black" points="238.01,-236.97 248.57,-237.81 240.84,-230.57 238.01,-236.97"/>
<text text-anchor="middle" x="226" y="-233.8" font-family="Helvetica,Arial,sans-serif" font-size="14.00">0</text>
</g>
<!-- 4&#45;&gt;10 -->
<g id="edge7" class="edge">
<title>4&#45;&gt;10</title>
<path fill="none" stroke="black" d="M196.36,-195.15C202.61,-186.35 211.59,-175.66 222,-169 227.82,-165.28 234.63,-162.53 241.32,-160.51"/>
<polygon fill="black" stroke="black" points="241.95,-163.96 250.79,-158.11 240.23,-157.17 241.95,-163.96"/>
<text text-anchor="middle" x="226" y="-172.8" font-family="Helvetica,Arial,sans-serif" font-size="14.00">1</text>
</g>
<!-- 10&#45;&gt;0 -->
<g id="edge5" class="edge">
<title>10&#45;&gt;0</title>
<path fill="none" stroke="black" d="M251.87,-153.88C214.29,-151.44 130.55,-144.51 62,-128 59.18,-127.32 56.29,-126.51 53.41,-125.63"/>
<polygon fill="black" stroke="black" points="54.62,-122.34 44.02,-122.45 52.37,-128.97 54.62,-122.34"/>
<text text-anchor="middle" x="146" y="-147.8" font-family="Helvetica,Arial,sans-serif" font-size="14.00">1</text>
</g>
<!-- 10&#45;&gt;4 -->
<g id="edge6" class="edge">
<title>10&#45;&gt;4</title>
<path fill="none" stroke="black" d="M256.46,-168.29C248.78,-174.64 239.18,-182.11 230,-188 224.62,-191.45 218.63,-194.8 212.87,-197.8"/>
<polygon fill="black" stroke="black" points="211.67,-194.49 204.29,-202.09 214.8,-200.75 211.67,-194.49"/>
<text text-anchor="middle" x="226" y="-196.8" font-family="Helvetica,Arial,sans-serif" font-size="14.00">0</text>
</g>
<!-- 10&#45;&gt;1 -->
<g id="edge3" class="edge">
<title>10&#45;&gt;1</title>
<path fill="none" stroke="black" d="M292.32,-162.76C299.51,-165.6 307.86,-168.67 315.6,-171 377,-189.45 450.93,-203.96 490.43,-211.12"/>
<polygon fill="black" stroke="black" points="489.59,-214.52 500.05,-212.83 490.82,-207.63 489.59,-214.52"/>
<text text-anchor="middle" x="399.6" y="-197.8" font-family="Helvetica,Arial,sans-serif" font-size="14.00">1</text>
</g>
<!-- 10&#45;&gt;3 -->
<g id="edge4" class="edge">
<title>10&#45;&gt;3</title>
<path fill="none" stroke="black" d="M286.35,-139.41C293.87,-131.36 304.18,-122.33 315.6,-118 322.53,-115.37 329.86,-117.13 336.46,-120.53"/>
<polygon fill="black" stroke="black" points="334.53,-123.45 344.81,-126.01 338.37,-117.6 334.53,-123.45"/>
<text text-anchor="middle" x="319.6" y="-121.8" font-family="Helvetica,Arial,sans-serif" font-size="14.00">1</text>
</g>
<!-- 1&#45;&gt;12 -->
<g id="edge21" class="edge">
<title>1&#45;&gt;12</title>
<path fill="none" stroke="black" d="M501.27,-218.26C461.23,-223.5 361.62,-236.52 308.48,-243.47"/>
<polygon fill="black" stroke="black" points="308.23,-239.97 298.77,-244.74 309.14,-246.91 308.23,-239.97"/>
<text text-anchor="middle" x="399.6" y="-235.8" font-family="Helvetica,Arial,sans-serif" font-size="14.00">0</text>
</g>
<!-- 1&#45;&gt;8 -->
<g id="edge20" class="edge">
<title>1&#45;&gt;8</title>
<path fill="none" stroke="black" d="M537.91,-216C547.3,-216 559.15,-216 569.88,-216"/>
<polygon fill="black" stroke="black" points="569.82,-219.5 579.82,-216 569.82,-212.5 569.82,-219.5"/>
<text text-anchor="middle" x="559.6" y="-219.8" font-family="Helvetica,Arial,sans-serif" font-size="14.00">1</text>
</g>
<!-- 3&#45;&gt;12 -->
<g id="edge13" class="edge">
<title>3&#45;&gt;12</title>
<path fill="none" stroke="black" d="M345.36,-150.39C336.41,-158.45 324.62,-169.78 315.6,-181 306.69,-192.07 298.14,-205.16 291.13,-216.82"/>
<polygon fill="black" stroke="black" points="288.19,-214.9 286.15,-225.3 294.23,-218.45 288.19,-214.9"/>
<text text-anchor="middle" x="319.6" y="-184.8" font-family="Helvetica,Arial,sans-serif" font-size="14.00">0</text>
</g>
<!-- 3&#45;&gt;9 -->
<g id="edge12" class="edge">
<title>3&#45;&gt;9</title>
<path fill="none" stroke="black" d="M377.09,-134.12C385.15,-131.6 394.97,-128.37 403.6,-125 406.63,-123.82 409.78,-122.5 412.89,-121.15"/>
<polygon fill="black" stroke="black" points="414.02,-124.48 421.7,-117.18 411.14,-118.1 414.02,-124.48"/>
<text text-anchor="middle" x="399.6" y="-131.8" font-family="Helvetica,Arial,sans-serif" font-size="14.00">1</text>
</g>
<!-- 9&#45;&gt;0 -->
<g id="edge10" class="edge">
<title>9&#45;&gt;0</title>
<path fill="none" stroke="black" d="M424.4,-98.92C409.32,-89.21 384.42,-76 360.6,-76 105,-76 105,-76 105,-76 85.05,-76 64.69,-85.37 49.25,-94.81"/>
<polygon fill="black" stroke="black" points="47.6,-91.71 41.13,-100.1 51.42,-97.57 47.6,-91.71"/>
<text text-anchor="middle" x="226" y="-79.8" font-family="Helvetica,Arial,sans-serif" font-size="14.00">1</text>
</g>
<!-- 9&#45;&gt;1 -->
<g id="edge9" class="edge">
<title>9&#45;&gt;1</title>
<path fill="none" stroke="black" d="M453.04,-121.14C462.07,-130.27 474.29,-143.35 483.6,-156 491.51,-166.75 499.12,-179.41 505.21,-190.33"/>
<polygon fill="black" stroke="black" points="501.97,-191.7 509.82,-198.81 508.12,-188.35 501.97,-191.7"/>
<text text-anchor="middle" x="479.6" y="-159.8" font-family="Helvetica,Arial,sans-serif" font-size="14.00">1</text>
</g>
<!-- 9&#45;&gt;3 -->
<g id="edge11" class="edge">
<title>9&#45;&gt;3</title>
<path fill="none" stroke="black" d="M421.36,-106.85C413.3,-106.48 403.71,-106.97 395.6,-110 390.33,-111.97 385.28,-115.09 380.74,-118.56"/>
<polygon fill="black" stroke="black" points="378.63,-115.76 373.37,-124.96 383.22,-121.05 378.63,-115.76"/>
<text text-anchor="middle" x="399.6" y="-113.8" font-family="Helvetica,Arial,sans-serif" font-size="14.00">0</text>
</g>
<!-- 8&#45;&gt;0 -->
<g id="edge18" class="edge">
<title>8&#45;&gt;0</title>
<path fill="none" stroke="black" d="M596.06,-197.96C588.25,-146.04 562.56,0 520.6,0 105,0 105,0 105,0 64.48,0 42.01,-48.06 31.23,-81.77"/>
<polygon fill="black" stroke="black" points="27.95,-80.52 28.45,-91.11 34.66,-82.52 27.95,-80.52"/>
<text text-anchor="middle" x="319.6" y="-3.8" font-family="Helvetica,Arial,sans-serif" font-size="14.00">1</text>
</g>
<!-- 8&#45;&gt;1 -->
<g id="edge19" class="edge">
<title>8&#45;&gt;1</title>
<path fill="none" stroke="black" d="M584.65,-205.17C576.41,-200.06 565.66,-195.56 555.6,-198 552.19,-198.83 548.74,-200.04 545.4,-201.46"/>
<polygon fill="black" stroke="black" points="544.08,-198.21 536.67,-205.79 547.18,-204.49 544.08,-198.21"/>
<text text-anchor="middle" x="559.6" y="-201.8" font-family="Helvetica,Arial,sans-serif" font-size="14.00">0</text>
</g>
</g>
</svg>
