<?xml version="1.0" encoding="UTF-8" standalone="no"?>
<!DOCTYPE svg PUBLIC "-//W3C//DTD SVG 1.1//EN"
 "http://www.w3.org/Graphics/SVG/1.1/DTD/svg11.dtd">
<!-- Generated by graphviz version 2.42.3 (20191010.1750)
 -->
<!-- Title: finite_state_machine Pages: 1 -->
<svg width="629pt" height="258pt"
 viewBox="0.00 0.00 628.79 258.00" xmlns="http://www.w3.org/2000/svg" xmlns:xlink="http://www.w3.org/1999/xlink">
<g id="graph0" class="graph" transform="scale(1 1) rotate(0) translate(4 254)">
<title>finite_state_machine</title>
<polygon fill="white" stroke="transparent" points="-4,4 -4,-254 624.79,-254 624.79,4 -4,4"/>
<!-- 0 -->
<g id="node1" class="node">
<title>0</title>
<ellipse fill="none" stroke="black" cx="22" cy="-131" rx="18" ry="18"/>
<ellipse fill="none" stroke="black" cx="22" cy="-131" rx="22" ry="22"/>
<text text-anchor="middle" x="22" y="-127.3" font-family="Helvetica,Arial,sans-serif" font-size="14.00">0</text>
</g>
<!-- 3 -->
<g id="node2" class="node">
<title>3</title>
<ellipse fill="none" stroke="black" cx="110" cy="-73" rx="18" ry="18"/>
<ellipse fill="none" stroke="black" cx="110" cy="-73" rx="22" ry="22"/>
<text text-anchor="middle" x="110" y="-69.3" font-family="Helvetica,Arial,sans-serif" font-size="14.00">3</text>
</g>
<!-- 0&#45;&gt;3 -->
<g id="edge19" class="edge">
<title>0&#45;&gt;3</title>
<path fill="none" stroke="black" d="M39.85,-117.97C46.64,-112.86 54.6,-107.02 62,-102 68.33,-97.71 75.27,-93.27 81.84,-89.21"/>
<polygon fill="black" stroke="black" points="83.76,-92.13 90.46,-83.93 80.11,-86.16 83.76,-92.13"/>
<text text-anchor="middle" x="66" y="-105.8" font-family="Helvetica,Arial,sans-serif" font-size="14.00">2</text>
</g>
<!-- 2 -->
<g id="node12" class="node">
<title>2</title>
<ellipse fill="none" stroke="black" cx="168" cy="-192" rx="18" ry="18"/>
<text text-anchor="middle" x="168" y="-188.3" font-family="Helvetica,Arial,sans-serif" font-size="14.00">2</text>
</g>
<!-- 0&#45;&gt;2 -->
<g id="edge18" class="edge">
<title>0&#45;&gt;2</title>
<path fill="none" stroke="black" d="M42.42,-139.23C68.1,-150.11 113.41,-169.3 141.74,-181.3"/>
<polygon fill="black" stroke="black" points="140.41,-184.54 150.99,-185.22 143.14,-178.09 140.41,-184.54"/>
<text text-anchor="middle" x="66" y="-153.8" font-family="Helvetica,Arial,sans-serif" font-size="14.00">2</text>
</g>
<!-- 1 -->
<g id="node13" class="node">
<title>1</title>
<ellipse fill="none" stroke="black" cx="226" cy="-131" rx="18" ry="18"/>
<text text-anchor="middle" x="226" y="-127.3" font-family="Helvetica,Arial,sans-serif" font-size="14.00">1</text>
</g>
<!-- 0&#45;&gt;1 -->
<g id="edge17" class="edge">
<title>0&#45;&gt;1</title>
<path fill="none" stroke="black" d="M44.24,-131C81.15,-131 157.1,-131 197.81,-131"/>
<polygon fill="black" stroke="black" points="197.82,-134.5 207.82,-131 197.82,-127.5 197.82,-134.5"/>
<text text-anchor="middle" x="110" y="-134.8" font-family="Helvetica,Arial,sans-serif" font-size="14.00">4</text>
</g>
<!-- 8 -->
<g id="node4" class="node">
<title>8</title>
<ellipse fill="none" stroke="black" cx="226" cy="-73" rx="18" ry="18"/>
<ellipse fill="none" stroke="black" cx="226" cy="-73" rx="22" ry="22"/>
<text text-anchor="middle" x="226" y="-69.3" font-family="Helvetica,Arial,sans-serif" font-size="14.00">8</text>
</g>
<!-- 3&#45;&gt;8 -->
<g id="edge9" class="edge">
<title>3&#45;&gt;8</title>
<path fill="none" stroke="black" d="M132.18,-73C149.45,-73 174.11,-73 193.67,-73"/>
<polygon fill="black" stroke="black" points="193.94,-76.5 203.94,-73 193.94,-69.5 193.94,-76.5"/>
<text text-anchor="middle" x="168" y="-76.8" font-family="Helvetica,Arial,sans-serif" font-size="14.00">2</text>
</g>
<!-- 6 -->
<g id="node11" class="node">
<title>6</title>
<ellipse fill="none" stroke="black" cx="312.8" cy="-18" rx="18" ry="18"/>
<text text-anchor="middle" x="312.8" y="-14.3" font-family="Helvetica,Arial,sans-serif" font-size="14.00">6</text>
</g>
<!-- 3&#45;&gt;6 -->
<g id="edge10" class="edge">
<title>3&#45;&gt;6</title>
<path fill="none" stroke="black" d="M129.05,-61.5C147.21,-50.56 176.41,-34.68 204,-27 230.74,-19.56 262.54,-17.71 284.64,-17.48"/>
<polygon fill="black" stroke="black" points="284.65,-20.98 294.65,-17.47 284.65,-13.98 284.65,-20.98"/>
<text text-anchor="middle" x="226" y="-30.8" font-family="Helvetica,Arial,sans-serif" font-size="14.00">2</text>
</g>
<!-- 4 -->
<g id="node3" class="node">
<title>4</title>
<ellipse fill="none" stroke="black" cx="373.6" cy="-131" rx="18" ry="18"/>
<ellipse fill="none" stroke="black" cx="373.6" cy="-131" rx="22" ry="22"/>
<text text-anchor="middle" x="373.6" y="-127.3" font-family="Helvetica,Arial,sans-serif" font-size="14.00">4</text>
</g>
<!-- 10 -->
<g id="node6" class="node">
<title>10</title>
<ellipse fill="none" stroke="black" cx="514.39" cy="-181" rx="20.6" ry="20.6"/>
<text text-anchor="middle" x="514.39" y="-177.3" font-family="Helvetica,Arial,sans-serif" font-size="14.00">10</text>
</g>
<!-- 4&#45;&gt;10 -->
<g id="edge13" class="edge">
<title>4&#45;&gt;10</title>
<path fill="none" stroke="black" d="M395.8,-132.66C411.11,-134.34 432.08,-137.64 449.6,-144 463.17,-148.93 477.18,-156.71 488.59,-163.86"/>
<polygon fill="black" stroke="black" points="486.84,-166.89 497.14,-169.39 490.65,-161.02 486.84,-166.89"/>
<text text-anchor="middle" x="431.6" y="-147.8" font-family="Helvetica,Arial,sans-serif" font-size="14.00">2</text>
</g>
<!-- 11 -->
<g id="node10" class="node">
<title>11</title>
<ellipse fill="none" stroke="black" cx="312.8" cy="-75" rx="20.6" ry="20.6"/>
<text text-anchor="middle" x="312.8" y="-71.3" font-family="Helvetica,Arial,sans-serif" font-size="14.00">11</text>
</g>
<!-- 8&#45;&gt;11 -->
<g id="edge7" class="edge">
<title>8&#45;&gt;11</title>
<path fill="none" stroke="black" d="M245.01,-61.22C253.64,-56.95 264.21,-53.68 274,-56 277.91,-56.93 281.87,-58.32 285.69,-59.95"/>
<polygon fill="black" stroke="black" points="284.23,-63.13 294.76,-64.32 287.27,-56.83 284.23,-63.13"/>
<text text-anchor="middle" x="270" y="-59.8" font-family="Helvetica,Arial,sans-serif" font-size="14.00">2</text>
</g>
<!-- 7 -->
<g id="node5" class="node">
<title>7</title>
<ellipse fill="none" stroke="black" cx="431.6" cy="-232" rx="18" ry="18"/>
<text text-anchor="middle" x="431.6" y="-228.3" font-family="Helvetica,Arial,sans-serif" font-size="14.00">7</text>
</g>
<!-- 7&#45;&gt;10 -->
<g id="edge1" class="edge">
<title>7&#45;&gt;10</title>
<path fill="none" stroke="black" d="M447.42,-222.65C458.67,-215.54 474.42,-205.6 487.71,-197.21"/>
<polygon fill="black" stroke="black" points="489.84,-200 496.43,-191.71 486.11,-194.08 489.84,-200"/>
<text text-anchor="middle" x="471.6" y="-212.8" font-family="Helvetica,Arial,sans-serif" font-size="14.00">1</text>
</g>
<!-- 12 -->
<g id="node7" class="node">
<title>12</title>
<ellipse fill="none" stroke="black" cx="599.99" cy="-213" rx="20.6" ry="20.6"/>
<text text-anchor="middle" x="599.99" y="-209.3" font-family="Helvetica,Arial,sans-serif" font-size="14.00">12</text>
</g>
<!-- 7&#45;&gt;12 -->
<g id="edge2" class="edge">
<title>7&#45;&gt;12</title>
<path fill="none" stroke="black" d="M449.77,-230.51C457.64,-229.8 467.1,-228.91 475.6,-228 507.7,-224.56 544.43,-220.01 569.41,-216.83"/>
<polygon fill="black" stroke="black" points="569.87,-220.3 579.35,-215.56 568.99,-213.36 569.87,-220.3"/>
<text text-anchor="middle" x="514.39" y="-228.8" font-family="Helvetica,Arial,sans-serif" font-size="14.00">2</text>
</g>
<!-- 10&#45;&gt;12 -->
<g id="edge11" class="edge">
<title>10&#45;&gt;12</title>
<path fill="none" stroke="black" d="M533.95,-188.1C544.69,-192.22 558.45,-197.48 570.54,-202.11"/>
<polygon fill="black" stroke="black" points="569.61,-205.5 580.2,-205.81 572.11,-198.96 569.61,-205.5"/>
<text text-anchor="middle" x="557.19" y="-200.8" font-family="Helvetica,Arial,sans-serif" font-size="14.00">6</text>
</g>
<!-- 5 -->
<g id="node8" class="node">
<title>5</title>
<ellipse fill="none" stroke="black" cx="312.8" cy="-190" rx="18" ry="18"/>
<text text-anchor="middle" x="312.8" y="-186.3" font-family="Helvetica,Arial,sans-serif" font-size="14.00">5</text>
</g>
<!-- 5&#45;&gt;7 -->
<g id="edge3" class="edge">
<title>5&#45;&gt;7</title>
<path fill="none" stroke="black" d="M330.04,-195.84C349.39,-202.8 381.96,-214.51 404.78,-222.72"/>
<polygon fill="black" stroke="black" points="403.9,-226.12 414.49,-226.21 406.27,-219.53 403.9,-226.12"/>
<text text-anchor="middle" x="373.6" y="-221.8" font-family="Helvetica,Arial,sans-serif" font-size="14.00">1</text>
</g>
<!-- 5&#45;&gt;10 -->
<g id="edge4" class="edge">
<title>5&#45;&gt;10</title>
<path fill="none" stroke="black" d="M330.82,-189.23C364.71,-187.7 441.03,-184.26 483.48,-182.35"/>
<polygon fill="black" stroke="black" points="483.67,-185.84 493.5,-181.9 483.35,-178.85 483.67,-185.84"/>
<text text-anchor="middle" x="431.6" y="-188.8" font-family="Helvetica,Arial,sans-serif" font-size="14.00">1</text>
</g>
<!-- 9 -->
<g id="node9" class="node">
<title>9</title>
<ellipse fill="none" stroke="black" cx="431.6" cy="-75" rx="18" ry="18"/>
<text text-anchor="middle" x="431.6" y="-71.3" font-family="Helvetica,Arial,sans-serif" font-size="14.00">9</text>
</g>
<!-- 9&#45;&gt;10 -->
<g id="edge5" class="edge">
<title>9&#45;&gt;10</title>
<path fill="none" stroke="black" d="M448.49,-81.78C457.37,-86.21 468.12,-92.71 475.6,-101 488.64,-115.45 498.03,-135.19 504.19,-151.45"/>
<polygon fill="black" stroke="black" points="500.95,-152.8 507.61,-161.04 507.55,-150.45 500.95,-152.8"/>
<text text-anchor="middle" x="471.6" y="-104.8" font-family="Helvetica,Arial,sans-serif" font-size="14.00">4</text>
</g>
<!-- 11&#45;&gt;9 -->
<g id="edge6" class="edge">
<title>11&#45;&gt;9</title>
<path fill="none" stroke="black" d="M333.61,-75C352.76,-75 381.94,-75 403.29,-75"/>
<polygon fill="black" stroke="black" points="403.35,-78.5 413.35,-75 403.35,-71.5 403.35,-78.5"/>
<text text-anchor="middle" x="373.6" y="-78.8" font-family="Helvetica,Arial,sans-serif" font-size="14.00">2</text>
</g>
<!-- 6&#45;&gt;9 -->
<g id="edge8" class="edge">
<title>6&#45;&gt;9</title>
<path fill="none" stroke="black" d="M329.62,-25C346.2,-32.41 372.94,-44.6 395.6,-56 399.07,-57.75 402.72,-59.65 406.28,-61.55"/>
<polygon fill="black" stroke="black" points="404.91,-64.79 415.37,-66.47 408.24,-58.63 404.91,-64.79"/>
<text text-anchor="middle" x="373.6" y="-59.8" font-family="Helvetica,Arial,sans-serif" font-size="14.00">2</text>
</g>
<!-- 2&#45;&gt;5 -->
<g id="edge12" class="edge">
<title>2&#45;&gt;5</title>
<path fill="none" stroke="black" d="M186.22,-191.76C210.56,-191.42 255.27,-190.79 284.25,-190.39"/>
<polygon fill="black" stroke="black" points="284.56,-193.88 294.51,-190.24 284.46,-186.88 284.56,-193.88"/>
<text text-anchor="middle" x="226" y="-194.8" font-family="Helvetica,Arial,sans-serif" font-size="14.00">2</text>
</g>
<!-- 1&#45;&gt;4 -->
<g id="edge16" class="edge">
<title>1&#45;&gt;4</title>
<path fill="none" stroke="black" d="M244.27,-131C268.16,-131 311.67,-131 341.34,-131"/>
<polygon fill="black" stroke="black" points="341.59,-134.5 351.59,-131 341.59,-127.5 341.59,-134.5"/>
<text text-anchor="middle" x="270" y="-134.8" font-family="Helvetica,Arial,sans-serif" font-size="14.00">2</text>
</g>
<!-- 1&#45;&gt;5 -->
<g id="edge14" class="edge">
<title>1&#45;&gt;5</title>
<path fill="none" stroke="black" d="M241.38,-141.01C254.5,-150.13 274.08,-163.76 289.27,-174.33"/>
<polygon fill="black" stroke="black" points="287.42,-177.3 297.63,-180.14 291.42,-171.55 287.42,-177.3"/>
<text text-anchor="middle" x="270" y="-165.8" font-family="Helvetica,Arial,sans-serif" font-size="14.00">2</text>
</g>
<!-- 1&#45;&gt;6 -->
<g id="edge15" class="edge">
<title>1&#45;&gt;6</title>
<path fill="none" stroke="black" d="M238.06,-117.36C247.74,-105.31 262.07,-87.19 274,-71 282.34,-59.69 283.84,-56.45 292,-45 293.02,-43.57 294.08,-42.1 295.14,-40.62"/>
<polygon fill="black" stroke="black" points="298.19,-42.38 301.25,-32.24 292.53,-38.26 298.19,-42.38"/>
<text text-anchor="middle" x="270" y="-84.8" font-family="Helvetica,Arial,sans-serif" font-size="14.00">2</text>
</g>
</g>
</svg>
